<?xml version="1.0" encoding="UTF-8" standalone="no"?>
<!DOCTYPE svg PUBLIC "-//W3C//DTD SVG 1.1//EN" "http://www.w3.org/Graphics/SVG/1.1/DTD/svg11.dtd">
<svg width="100%" height="100%" viewBox="0 0 16 16" version="1.1" xmlns="http://www.w3.org/2000/svg" xmlns:xlink="http://www.w3.org/1999/xlink" xml:space="preserve" xmlns:serif="http://www.serif.com/" style="fill-rule:evenodd;clip-rule:evenodd;stroke-linejoin:round;stroke-miterlimit:1.41421;">
    <path d="M13.591,15.143L13.591,15.143L13.63,15.102L13.632,15.1L13.632,15.1L13.63,15.102L13.622,15.11L13.591,15.143ZM2.994,15.081L2.508,15.081L2.302,14.689C2.19,14.446 2.041,14.109 1.966,13.941L1.854,13.623L1.512,13.999C1.543,14.063 1.545,14.07 1.504,14.008L1.48,14.034L1.106,14.446L1.069,13.66C1.058,13.445 1.053,13.229 1.052,13.013C0.684,12.151 0.24,10.888 0.24,9.764C0.24,7.235 1.452,4.987 3.327,3.57C3.327,3.464 3.335,3.32 3.349,3.099C3.386,2.314 3.443,2.146 3.686,1.884C3.985,1.548 4.19,1.491 4.938,1.529C5.48,1.566 5.592,1.585 5.835,1.697C5.985,1.772 6.116,1.847 6.134,1.847C6.153,1.847 6.321,1.641 6.527,1.361L6.882,0.856L7.106,0.987C7.237,1.062 7.387,1.155 7.462,1.192L7.592,1.267L7.48,1.548C7.432,1.677 7.369,1.891 7.341,2.031C7.558,2.013 7.778,2.004 8,2.004C12.283,2.004 15.76,5.481 15.76,9.764C15.76,11.83 14.951,13.708 13.632,15.1L13.611,15.1L13.611,15.1L12.677,15.1L12.901,14.651C13.144,14.165 13.331,13.492 13.425,12.894C13.481,12.483 13.499,11.361 13.443,11.156L13.406,11.025L13.163,11.286C12.565,11.941 11.686,12.128 10.508,11.81C9.499,11.548 9.088,11.492 8.134,11.492C7.405,11.492 7.162,11.511 6.77,11.604C5.686,11.847 4.919,12.202 3.854,12.969C3.461,13.249 3.143,13.474 3.125,13.474C3.106,13.474 3.162,13.287 3.237,13.044C3.312,12.801 3.443,12.408 3.517,12.146L3.667,11.679L3.499,11.847C3.405,11.941 3.143,12.202 2.919,12.445L2.527,12.875L2.62,13.231C2.732,13.698 2.994,14.277 3.274,14.707C3.386,14.894 3.48,15.044 3.48,15.062C3.48,15.073 3.407,15.078 3.295,15.08L3.294,15.08L3.286,15.08C3.254,15.08 3.218,15.081 3.18,15.081L3.123,15.081L3.103,15.081L3.095,15.081L3.09,15.081L2.994,15.081ZM5.798,14.034C5.686,13.922 5.648,13.847 5.648,13.66C5.648,13.305 5.854,13.1 6.19,13.1C6.508,13.1 6.732,13.324 6.732,13.642C6.732,13.978 6.527,14.165 6.172,14.184C5.985,14.184 5.91,14.146 5.798,14.034ZM9.406,14.09C8.976,13.754 9.2,13.1 9.742,13.1C10.079,13.1 10.265,13.305 10.284,13.66C10.284,13.866 10.265,13.922 10.135,14.034C10.004,14.146 9.948,14.184 9.761,14.184C9.592,14.184 9.48,14.146 9.406,14.09ZM3.947,10.165C4.845,9.212 5.574,8.445 5.592,8.445C5.611,8.464 5.517,8.744 5.424,9.062C4.807,11.006 4.676,11.38 4.695,11.399C4.695,11.399 4.919,11.324 5.162,11.23C6.751,10.539 8.602,10.445 10.565,10.969C11.443,11.193 11.78,11.193 12.209,10.969C12.452,10.838 12.546,10.763 12.658,10.576C12.864,10.258 12.882,9.81 12.752,9.399C12.434,8.501 11.2,7.342 10.041,6.838C9.443,6.576 9.406,6.576 9.275,6.707L9.163,6.819L9.649,7.417C9.91,7.735 10.191,8.09 10.228,8.183C10.34,8.408 10.359,8.763 10.247,8.987C10.097,9.305 9.649,9.529 9.293,9.455C9.144,9.417 9.088,9.436 8.938,9.548C8.527,9.847 8.078,9.772 7.705,9.324C7.405,8.987 7.331,8.819 7.312,8.483C7.312,8.314 7.256,8.109 7.219,8.034C7.162,7.922 7.144,7.791 7.144,7.623L7.162,7.361L6.919,7.305C6.583,7.211 6.19,7.025 5.966,6.856C5.854,6.782 5.76,6.707 5.723,6.707C5.686,6.707 5.443,6.819 5.181,6.95C3.368,7.884 2.19,9.623 2.003,11.586C1.985,11.773 1.966,12.016 1.947,12.109L1.928,12.277L2.134,12.072C2.228,11.978 3.05,11.118 3.947,10.165ZM8.789,8.782C8.957,8.651 9.106,8.539 9.144,8.539C9.163,8.539 9.219,8.595 9.275,8.669C9.368,8.819 9.536,8.819 9.611,8.688C9.667,8.595 9.667,8.576 8.564,7.23C7.91,6.426 7.779,6.296 7.686,6.296C7.462,6.314 7.518,6.482 7.873,6.912L8.209,7.324L8.022,7.473C7.817,7.66 7.798,7.697 7.929,7.81C8.022,7.903 8.041,7.884 8.228,7.754L8.434,7.623L8.564,7.735C8.639,7.791 8.677,7.884 8.677,7.903C8.677,7.94 8.527,8.071 8.359,8.221C8.191,8.352 8.06,8.501 8.06,8.539C8.06,8.595 8.153,8.744 8.321,8.95C8.377,9.062 8.471,9.025 8.789,8.782ZM6.863,6.127C6.975,5.791 7.349,5.529 7.723,5.529C7.929,5.529 8.228,5.697 8.434,5.922L8.62,6.146L8.789,5.94C9.256,5.417 9.312,4.688 8.938,4.052C8.658,3.585 8.134,3.305 7.405,3.23C7.013,3.192 6.919,3.155 6.714,2.949L6.564,2.8L6.489,2.912C6.34,3.136 6.022,3.865 5.929,4.146C5.798,4.576 5.854,5.249 6.022,5.585C6.19,5.903 6.639,6.333 6.77,6.277C6.789,6.296 6.826,6.221 6.863,6.127ZM5.2,3.585C5.237,3.492 5.331,3.249 5.424,3.062C5.517,2.875 5.592,2.688 5.592,2.632C5.592,2.463 5.405,2.389 4.901,2.351C4.452,2.314 4.415,2.333 4.321,2.426C4.246,2.501 4.209,2.594 4.209,2.725C4.209,2.837 4.19,3.043 4.172,3.211C4.134,3.604 4.19,3.679 4.583,3.735C5.162,3.772 5.144,3.772 5.2,3.585ZM5.167,2.939C5.196,2.872 5.15,2.764 5.081,2.741C4.967,2.72 4.848,2.729 4.764,2.707C4.662,2.68 4.591,2.75 4.57,2.857C4.541,3.003 4.535,3.075 4.512,3.178C4.496,3.247 4.558,3.297 4.626,3.319C4.709,3.331 4.788,3.329 4.878,3.347C4.949,3.361 5.038,3.311 5.059,3.225C5.088,3.108 5.124,3.035 5.167,2.939Z" style="fill:rgb(130,130,130);fill-rule:nonzero;"/>
</svg>
