<?xml version="1.0" encoding="UTF-8" standalone="no"?>
<!DOCTYPE svg PUBLIC "-//W3C//DTD SVG 1.1//EN" "http://www.w3.org/Graphics/SVG/1.1/DTD/svg11.dtd">
<svg width="100%" height="100%" viewBox="0 0 16 16" version="1.1" xmlns="http://www.w3.org/2000/svg" xmlns:xlink="http://www.w3.org/1999/xlink" xml:space="preserve" xmlns:serif="http://www.serif.com/" style="fill-rule:evenodd;clip-rule:evenodd;stroke-linejoin:round;stroke-miterlimit:1.41421;">
    <g transform="matrix(0.0303145,0,0,0.0303145,0.239,0.239485)">
        <path d="M492.044,106.769C473.562,84.799 439.44,75.838 374.274,75.838L137.721,75.838C71.064,75.838 36.363,85.378 17.951,108.768C0,131.572 0,165.174 0,211.681L0,300.321C0,390.418 21.299,436.163 137.721,436.163L374.275,436.163C430.787,436.163 462.101,428.255 482.36,408.867C503.136,388.985 512,356.522 512,300.321L512,211.681C512,162.636 510.611,128.836 492.044,106.769ZM328.706,268.238L221.288,324.378C218.887,325.633 216.26,326.256 213.638,326.256C210.668,326.256 207.705,325.457 205.081,323.868C200.139,320.874 197.122,315.517 197.122,309.74L197.122,197.82C197.122,192.053 200.131,186.701 205.063,183.705C209.996,180.709 216.132,180.504 221.25,183.163L328.668,238.941C334.133,241.778 337.565,247.42 337.573,253.576C337.58,259.738 334.163,265.388 328.706,268.238Z" style="fill:rgb(130,130,130);fill-rule:nonzero;"/>
    </g>
</svg>
